<svg xmlns="http://www.w3.org/2000/svg" xmlns:xlink="http://www.w3.org/1999/xlink" version="1.1" style="shape-rendering:geometricPrecision; text-rendering:geometricPrecision; image-rendering:optimizeQuality; fill-rule:evenodd; clip-rule:evenodd" viewBox="980.5 220.72 343.41 256.28">
<g><path style="opacity:0.962" fill="#9a2e40" d="M 1278.5,466.5 C 1279.5,466.586 1280.33,466.252 1281,465.5C 1285.35,457.458 1289.69,449.458 1294,441.5C 1296.01,434.641 1298.51,427.974 1301.5,421.5C 1308.62,392.359 1308.12,363.359 1300,334.5C 1297.92,328.661 1295.08,323.327 1291.5,318.5C 1289.58,310.665 1286.08,303.665 1281,297.5C 1280.6,297.728 1280.43,298.062 1280.5,298.5C 1278.5,296.5 1276.5,294.5 1274.5,292.5C 1271.67,282.509 1266.5,273.843 1259,266.5C 1258.83,266.833 1258.67,267.167 1258.5,267.5C 1260.63,270.896 1261.96,274.563 1262.5,278.5C 1260.17,276.5 1257.83,274.5 1255.5,272.5C 1252,263.691 1246.33,257.358 1238.5,253.5C 1240.37,255.91 1241.7,258.577 1242.5,261.5C 1235.2,258.185 1228.2,254.351 1221.5,250C 1158.9,223.455 1101.56,231.788 1049.5,275C 1031.54,291.767 1018.21,311.6 1009.5,334.5C 1007.73,336.792 1006.73,339.458 1006.5,342.5C 1003.2,341.624 999.868,341.457 996.5,342C 994.393,343.264 993.393,345.097 993.5,347.5C 990.99,347.946 988.99,347.28 987.5,345.5C 1008.9,279.937 1053.23,239.104 1120.5,223C 1208.66,211.268 1272.82,244.768 1313,323.5C 1326.84,358.493 1327.51,393.826 1315,429.5C 1308.07,446.783 1297.24,461.283 1282.5,473C 1280.98,474.009 1279.31,474.509 1277.5,474.5C 1277.67,471.447 1278,468.78 1278.5,466.5 Z"/></g>
<g><path style="opacity:1" fill="#ec6b32" d="M 1242.5,261.5 C 1244.06,267.017 1245.23,272.684 1246,278.5C 1251.34,283.753 1256.84,288.086 1262.5,291.5C 1258.38,285.82 1256.05,279.487 1255.5,272.5C 1257.83,274.5 1260.17,276.5 1262.5,278.5C 1262.61,285.099 1263.78,291.432 1266,297.5C 1270,302.833 1274,308.167 1278,313.5C 1276.66,306.601 1275.49,299.601 1274.5,292.5C 1276.5,294.5 1278.5,296.5 1280.5,298.5C 1284.18,307.11 1284.34,315.777 1281,324.5C 1271.04,305.193 1257.37,288.86 1240,275.5C 1237.45,256.559 1227.45,250.892 1210,258.5C 1145.27,234.574 1089.61,247.908 1043,298.5C 1035.56,307.719 1029.39,317.719 1024.5,328.5C 1021.15,330.571 1017.82,332.738 1014.5,335C 1012.61,335.78 1010.95,335.613 1009.5,334.5C 1018.21,311.6 1031.54,291.767 1049.5,275C 1101.56,231.788 1158.9,223.455 1221.5,250C 1228.2,254.351 1235.2,258.185 1242.5,261.5 Z"/></g>
<g><path style="opacity:0.995" fill="#f9f7f6" d="M 1280.5,298.5 C 1280.43,298.062 1280.6,297.728 1281,297.5C 1286.08,303.665 1289.58,310.665 1291.5,318.5C 1292.29,324.13 1292.63,329.797 1292.5,335.5C 1293.04,354.162 1293.37,372.829 1293.5,391.5C 1292.35,403.801 1289.85,415.801 1286,427.5C 1284.97,429.346 1283.8,431.013 1282.5,432.5C 1281.26,430.389 1279.76,428.389 1278,426.5C 1276.67,427.582 1275.17,428.249 1273.5,428.5C 1275.86,420.421 1278.2,412.421 1280.5,404.5C 1281.47,402.337 1282.3,400.004 1283,397.5C 1283.8,384.469 1283.47,371.469 1282,358.5C 1281.77,357.263 1281.27,356.263 1280.5,355.5C 1273.05,325.891 1257.05,302.058 1232.5,284C 1222.86,286.961 1214.7,284.461 1208,276.5C 1207.5,273.854 1207.34,271.187 1207.5,268.5C 1152.09,247.493 1102.76,256.993 1059.5,297C 1049.04,308.095 1040.7,320.595 1034.5,334.5C 1033.78,332.909 1032.78,331.409 1031.5,330C 1028.96,329.814 1026.63,329.314 1024.5,328.5C 1029.39,317.719 1035.56,307.719 1043,298.5C 1089.61,247.908 1145.27,234.574 1210,258.5C 1227.45,250.892 1237.45,256.559 1240,275.5C 1257.37,288.86 1271.04,305.193 1281,324.5C 1284.34,315.777 1284.18,307.11 1280.5,298.5 Z"/></g>
<g><path style="opacity:1" fill="#faf0ec" d="M 1255.5,272.5 C 1256.05,279.487 1258.38,285.82 1262.5,291.5C 1256.84,288.086 1251.34,283.753 1246,278.5C 1245.23,272.684 1244.06,267.017 1242.5,261.5C 1241.7,258.577 1240.37,255.91 1238.5,253.5C 1246.33,257.358 1252,263.691 1255.5,272.5 Z"/></g>
<g><path style="opacity:1" fill="#276538" d="M 1280.5,355.5 C 1283.07,371.865 1283.07,388.198 1280.5,404.5C 1278.2,412.421 1275.86,420.421 1273.5,428.5C 1270.37,432.127 1266.53,434.794 1262,436.5C 1258.96,435.219 1257.79,432.885 1258.5,429.5C 1260.52,427.051 1262.36,424.385 1264,421.5C 1265.37,415.088 1267.04,408.755 1269,402.5C 1275.04,377.792 1271.87,354.459 1259.5,332.5C 1264.79,332.731 1269.29,334.731 1273,338.5C 1270.06,326.723 1262.56,320.056 1250.5,318.5C 1248.19,315.185 1245.86,311.851 1243.5,308.5C 1247.78,307.989 1251.78,308.656 1255.5,310.5C 1255.83,310.167 1256.17,309.833 1256.5,309.5C 1250.46,299.814 1241.79,295.481 1230.5,296.5C 1190.58,265.634 1147.25,260.134 1100.5,280C 1074.32,294.009 1055.32,314.509 1043.5,341.5C 1041.56,340.85 1039.56,340.517 1037.5,340.5C 1035.62,338.947 1034.62,336.947 1034.5,334.5C 1040.7,320.595 1049.04,308.095 1059.5,297C 1102.76,256.993 1152.09,247.493 1207.5,268.5C 1207.34,271.187 1207.5,273.854 1208,276.5C 1214.7,284.461 1222.86,286.961 1232.5,284C 1257.05,302.058 1273.05,325.891 1280.5,355.5 Z"/></g>
<g><path style="opacity:1" fill="#040302" d="M 1230.5,296.5 C 1223.21,297.15 1216.21,296.15 1209.5,293.5C 1157.7,267.752 1111.54,275.418 1071,316.5C 1062.58,326.748 1056.08,338.081 1051.5,350.5C 1049.52,348.832 1047.19,348.166 1044.5,348.5C 1044.55,346.097 1044.22,343.764 1043.5,341.5C 1055.32,314.509 1074.32,294.009 1100.5,280C 1147.25,260.134 1190.58,265.634 1230.5,296.5 Z"/></g>
<g><path style="opacity:1" fill="#f9efec" d="M 1274.5,292.5 C 1275.49,299.601 1276.66,306.601 1278,313.5C 1274,308.167 1270,302.833 1266,297.5C 1263.78,291.432 1262.61,285.099 1262.5,278.5C 1261.96,274.563 1260.63,270.896 1258.5,267.5C 1258.67,267.167 1258.83,266.833 1259,266.5C 1266.5,273.843 1271.67,282.509 1274.5,292.5 Z"/></g>
<g><path style="opacity:0.958" fill="#393738" d="M 1209.5,293.5 C 1215.17,297.5 1220.83,301.5 1226.5,305.5C 1226.06,305.435 1225.73,305.601 1225.5,306C 1229.37,309.702 1233.04,313.536 1236.5,317.5C 1233.61,316.039 1230.61,315.206 1227.5,315C 1233.8,321.147 1240.46,326.647 1247.5,331.5C 1253.45,342.509 1257.95,354.176 1261,366.5C 1261.99,378.325 1261.16,389.991 1258.5,401.5C 1253.45,403.776 1248.61,406.443 1244,409.5C 1243.33,408.833 1242.67,408.167 1242,407.5C 1244.03,395.458 1245.53,383.291 1246.5,371C 1238.51,336.343 1218.18,312.01 1185.5,298C 1142.47,284.214 1106.63,294.714 1078,329.5C 1070.07,340.37 1064.57,352.37 1061.5,365.5C 1058.87,363.888 1056.2,362.221 1053.5,360.5C 1051.77,358.18 1051.11,355.513 1051.5,352.5C 1051.5,351.833 1051.5,351.167 1051.5,350.5C 1056.08,338.081 1062.58,326.748 1071,316.5C 1111.54,275.418 1157.7,267.752 1209.5,293.5 Z"/></g>
<g><path style="opacity:1" fill="#e7eae8" d="M 1209.5,293.5 C 1216.21,296.15 1223.21,297.15 1230.5,296.5C 1241.79,295.481 1250.46,299.814 1256.5,309.5C 1256.17,309.833 1255.83,310.167 1255.5,310.5C 1251.78,308.656 1247.78,307.989 1243.5,308.5C 1237.45,309.198 1231.79,308.198 1226.5,305.5C 1220.83,301.5 1215.17,297.5 1209.5,293.5 Z"/></g>
<g><path style="opacity:1" fill="#11100f" d="M 1226.5,305.5 C 1231.79,308.198 1237.45,309.198 1243.5,308.5C 1245.86,311.851 1248.19,315.185 1250.5,318.5C 1245.85,318.002 1241.18,317.669 1236.5,317.5C 1233.04,313.536 1229.37,309.702 1225.5,306C 1225.73,305.601 1226.06,305.435 1226.5,305.5 Z"/></g>
<g><path style="opacity:1" fill="#ebedec" d="M 1236.5,317.5 C 1241.18,317.669 1245.85,318.002 1250.5,318.5C 1262.56,320.056 1270.06,326.723 1273,338.5C 1269.29,334.731 1264.79,332.731 1259.5,332.5C 1255.48,332.354 1251.48,332.021 1247.5,331.5C 1240.46,326.647 1233.8,321.147 1227.5,315C 1230.61,315.206 1233.61,316.039 1236.5,317.5 Z"/></g>
<g><path style="opacity:0.995" fill="#eb6931" d="M 1291.5,318.5 C 1295.08,323.327 1297.92,328.661 1300,334.5C 1308.12,363.359 1308.62,392.359 1301.5,421.5C 1298.51,427.974 1296.01,434.641 1294,441.5C 1289.69,449.458 1285.35,457.458 1281,465.5C 1280.33,466.252 1279.5,466.586 1278.5,466.5C 1280.16,459.859 1281.83,453.193 1283.5,446.5C 1283.04,441.774 1282.71,437.107 1282.5,432.5C 1283.8,431.013 1284.97,429.346 1286,427.5C 1289.85,415.801 1292.35,403.801 1293.5,391.5C 1294.77,372.814 1294.43,354.147 1292.5,335.5C 1292.63,329.797 1292.29,324.13 1291.5,318.5 Z"/></g>
<g><path style="opacity:1" fill="#ec6c31" d="M 1037.5,340.5 C 1038.31,341.837 1039.48,342.837 1041,343.5C 1041.78,344.729 1042.28,346.062 1042.5,347.5C 1040.53,351.139 1037.86,354.139 1034.5,356.5C 1032.97,356.427 1031.97,357.094 1031.5,358.5C 1030.6,359.209 1030.26,360.209 1030.5,361.5C 1031.55,361.649 1032.55,361.483 1033.5,361C 1036.17,357 1039.5,353.667 1043.5,351C 1046.5,350.109 1049.16,350.609 1051.5,352.5C 1051.11,355.513 1051.77,358.18 1053.5,360.5C 1055.19,362.491 1056.53,364.657 1057.5,367C 1057.34,369.149 1056.51,370.983 1055,372.5C 1054.67,376.167 1054.33,379.833 1054,383.5C 1053.5,384.667 1052.67,385.5 1051.5,386C 1052.45,386.483 1053.45,386.649 1054.5,386.5C 1054.17,387.5 1053.5,388.167 1052.5,388.5C 1051.79,387.596 1050.79,387.263 1049.5,387.5C 1049.66,388.873 1049.49,390.207 1049,391.5C 1045.86,393.32 1042.86,395.32 1040,397.5C 1039.99,400.659 1039.16,403.493 1037.5,406C 1031.25,404.588 1024.91,404.255 1018.5,405C 1016.31,403.447 1015.14,401.281 1015,398.5C 1013.38,400.241 1011.88,402.075 1010.5,404C 1007.15,404.891 1004.81,403.725 1003.5,400.5C 993.132,401.804 989.132,397.47 991.5,387.5C 990.037,385.369 989.037,383.035 988.5,380.5C 988.486,378.407 989.152,376.574 990.5,375C 988.714,374.215 987.214,373.049 986,371.5C 985.61,368.161 985.776,364.827 986.5,361.5C 985.632,358.508 985.132,355.508 985,352.5C 987.7,350.147 990.866,348.647 994.5,348C 998.759,342.181 1003.26,342.014 1008,347.5C 1009.83,350.5 1011.67,353.5 1013.5,356.5C 1013.33,356.833 1013.17,357.167 1013,357.5C 1007.95,350.886 1007.28,351.552 1011,359.5C 1012.36,360.38 1013.86,360.714 1015.5,360.5C 1015.66,358.801 1015.49,357.134 1015,355.5C 1012.75,352.672 1010.75,349.672 1009,346.5C 1008.23,343.901 1008.4,341.401 1009.5,339C 1012.23,338.587 1014.9,337.92 1017.5,337C 1020.19,334.306 1023.35,332.473 1027,331.5C 1030.36,332.024 1032.19,334.024 1032.5,337.5C 1033.73,339.278 1035.39,340.278 1037.5,340.5 Z M 1035.5,377.5 C 1036.04,377.56 1036.38,377.893 1036.5,378.5C 1035.64,379.583 1034.64,379.749 1033.5,379C 1034.42,378.722 1035.08,378.222 1035.5,377.5 Z M 1016.5,384.5 C 1019.14,385.794 1019.14,387.127 1016.5,388.5C 1015.37,387.192 1015.37,385.858 1016.5,384.5 Z"/></g>
<g><path style="opacity:0.933" fill="#040403" d="M 1247.5,331.5 C 1251.48,332.021 1255.48,332.354 1259.5,332.5C 1271.87,354.459 1275.04,377.792 1269,402.5C 1267.04,408.755 1265.37,415.088 1264,421.5C 1262.36,424.385 1260.52,427.051 1258.5,429.5C 1259.85,422.906 1261.52,416.406 1263.5,410C 1262.74,407.931 1262.24,405.764 1262,403.5C 1260.89,402.695 1259.72,402.028 1258.5,401.5C 1261.16,389.991 1261.99,378.325 1261,366.5C 1257.95,354.176 1253.45,342.509 1247.5,331.5 Z"/></g>
<g><path style="opacity:1" fill="#9e6540" d="M 1037.5,340.5 C 1039.56,340.517 1041.56,340.85 1043.5,341.5C 1044.22,343.764 1044.55,346.097 1044.5,348.5C 1047.19,348.166 1049.52,348.832 1051.5,350.5C 1051.5,351.167 1051.5,351.833 1051.5,352.5C 1049.16,350.609 1046.5,350.109 1043.5,351C 1039.5,353.667 1036.17,357 1033.5,361C 1032.55,361.483 1031.55,361.649 1030.5,361.5C 1030.26,360.209 1030.6,359.209 1031.5,358.5C 1033.07,359.559 1034.4,359.059 1035.5,357C 1035.27,356.601 1034.94,356.435 1034.5,356.5C 1037.86,354.139 1040.53,351.139 1042.5,347.5C 1042.28,346.062 1041.78,344.729 1041,343.5C 1039.48,342.837 1038.31,341.837 1037.5,340.5 Z"/></g>
<g><path style="opacity:1" fill="#2a6637" d="M 1034.5,356.5 C 1034.94,356.435 1035.27,356.601 1035.5,357C 1034.4,359.059 1033.07,359.559 1031.5,358.5C 1031.97,357.094 1032.97,356.427 1034.5,356.5 Z"/></g>
<g><path style="opacity:1" fill="#fef3ee" d="M 1017.5,363.5 C 1023.87,363.368 1026.37,366.368 1025,372.5C 1021.58,376.367 1018.25,376.367 1015,372.5C 1013.93,368.9 1014.76,365.9 1017.5,363.5 Z"/></g>
<g><path style="opacity:1" fill="#ee9976" d="M 1292.5,335.5 C 1294.43,354.147 1294.77,372.814 1293.5,391.5C 1293.37,372.829 1293.04,354.162 1292.5,335.5 Z"/></g>
<g><path style="opacity:0.529" fill="#da8a67" d="M 1053.5,360.5 C 1056.2,362.221 1058.87,363.888 1061.5,365.5C 1062.6,366.601 1062.76,367.934 1062,369.5C 1059.27,372.554 1058.11,375.888 1058.5,379.5C 1058.17,380.167 1057.83,380.833 1057.5,381.5C 1057.73,383.933 1056.73,385.599 1054.5,386.5C 1053.45,386.649 1052.45,386.483 1051.5,386C 1052.67,385.5 1053.5,384.667 1054,383.5C 1054.33,379.833 1054.67,376.167 1055,372.5C 1056.51,370.983 1057.34,369.149 1057.5,367C 1056.53,364.657 1055.19,362.491 1053.5,360.5 Z"/></g>
<g><path style="opacity:1" fill="#b0bdb0" d="M 1280.5,355.5 C 1281.27,356.263 1281.77,357.263 1282,358.5C 1283.47,371.469 1283.8,384.469 1283,397.5C 1282.3,400.004 1281.47,402.337 1280.5,404.5C 1283.07,388.198 1283.07,371.865 1280.5,355.5 Z"/></g>
<g><path style="opacity:0.016" fill="#3a2e2b" d="M 1064.5,372.5 C 1066.01,375.08 1065.34,377.08 1062.5,378.5C 1061.69,378.192 1061.03,377.692 1060.5,377C 1062.04,375.629 1063.37,374.129 1064.5,372.5 Z"/></g>
<g><path style="opacity:0.004" fill="#000000" d="M 1058.5,379.5 C 1061.19,380.988 1060.85,381.655 1057.5,381.5C 1057.83,380.833 1058.17,380.167 1058.5,379.5 Z"/></g>
<g><path style="opacity:0.384" fill="#dc8661" d="M 1024.5,328.5 C 1026.63,329.314 1028.96,329.814 1031.5,330C 1032.78,331.409 1033.78,332.909 1034.5,334.5C 1034.62,336.947 1035.62,338.947 1037.5,340.5C 1035.39,340.278 1033.73,339.278 1032.5,337.5C 1032.19,334.024 1030.36,332.024 1027,331.5C 1023.35,332.473 1020.19,334.306 1017.5,337C 1014.9,337.92 1012.23,338.587 1009.5,339C 1008.4,341.401 1008.23,343.901 1009,346.5C 1010.75,349.672 1012.75,352.672 1015,355.5C 1015.49,357.134 1015.66,358.801 1015.5,360.5C 1013.86,360.714 1012.36,360.38 1011,359.5C 1007.28,351.552 1007.95,350.886 1013,357.5C 1013.17,357.167 1013.33,356.833 1013.5,356.5C 1011.67,353.5 1009.83,350.5 1008,347.5C 1003.26,342.014 998.759,342.181 994.5,348C 990.866,348.647 987.7,350.147 985,352.5C 985.132,355.508 985.632,358.508 986.5,361.5C 985.776,364.827 985.61,368.161 986,371.5C 987.214,373.049 988.714,374.215 990.5,375C 989.152,376.574 988.486,378.407 988.5,380.5C 989.037,383.035 990.037,385.369 991.5,387.5C 989.132,397.47 993.132,401.804 1003.5,400.5C 1004.81,403.725 1007.15,404.891 1010.5,404C 1011.88,402.075 1013.38,400.241 1015,398.5C 1015.14,401.281 1016.31,403.447 1018.5,405C 1024.91,404.255 1031.25,404.588 1037.5,406C 1039.16,403.493 1039.99,400.659 1040,397.5C 1042.86,395.32 1045.86,393.32 1049,391.5C 1049.49,390.207 1049.66,388.873 1049.5,387.5C 1050.79,387.263 1051.79,387.596 1052.5,388.5C 1051.22,390.562 1050.39,392.896 1050,395.5C 1048.2,397.145 1046.2,398.478 1044,399.5C 1043.94,404.899 1041.27,408.899 1036,411.5C 1033.43,410.991 1031.1,409.991 1029,408.5C 1023.67,411.12 1018.51,410.787 1013.5,407.5C 1008.94,409.46 1004.61,408.627 1000.5,405C 988.855,404.034 984.022,397.867 986,386.5C 985,385.167 984,385.167 983,386.5C 982.944,380.174 982.111,374.007 980.5,368C 981.848,366.426 982.514,364.593 982.5,362.5C 980.277,358.23 980.11,353.897 982,349.5C 983.451,347.536 985.284,346.203 987.5,345.5C 988.99,347.28 990.99,347.946 993.5,347.5C 993.393,345.097 994.393,343.264 996.5,342C 999.868,341.457 1003.2,341.624 1006.5,342.5C 1006.73,339.458 1007.73,336.792 1009.5,334.5C 1010.95,335.613 1012.61,335.78 1014.5,335C 1017.82,332.738 1021.15,330.571 1024.5,328.5 Z"/></g>
<g><path style="opacity:0.039" fill="#1f1f1f" d="M 1237.5,418.5 C 1237.33,414.134 1239,412.967 1242.5,415C 1241.15,416.669 1239.49,417.836 1237.5,418.5 Z"/></g>
<g><path style="opacity:0.012" fill="#2c2c2c" d="M 1243.5,416.5 C 1244.25,415.427 1245.25,415.26 1246.5,416C 1245.55,416.483 1244.55,416.649 1243.5,416.5 Z"/></g>
<g><path style="opacity:0.004" fill="#000000" d="M 1237.5,418.5 C 1236.83,419.167 1236.83,419.167 1237.5,418.5 Z"/></g>
<g><path style="opacity:0.004" fill="#000000" d="M 1231.5,428.5 C 1232.83,429.167 1232.83,429.167 1231.5,428.5 Z"/></g>
<g><path style="opacity:0.004" fill="#fefffe" d="M 1274.5,435.5 C 1274.9,434.475 1275.56,434.308 1276.5,435C 1275.91,435.464 1275.24,435.631 1274.5,435.5 Z"/></g>
<g><path style="opacity:0.004" fill="#000000" d="M 1228.5,436.5 C 1229.53,436.897 1229.69,437.563 1229,438.5C 1228.54,437.906 1228.37,437.239 1228.5,436.5 Z"/></g>
<g><path style="opacity:0.008" fill="#6a2908" d="M 1236.5,443.5 C 1237.38,443.369 1238.04,443.702 1238.5,444.5C 1236.19,445.873 1235.52,445.54 1236.5,443.5 Z"/></g>
<g><path style="opacity:0.005" fill="#ff49fd" d="M 1250.5,457.5 C 1252.1,457.312 1253.44,457.812 1254.5,459C 1252.54,459.844 1251.2,459.344 1250.5,457.5 Z"/></g>
<g><path style="opacity:0.004" fill="#b01507" d="M 1260.5,465.5 C 1264.1,467.49 1264.1,468.323 1260.5,468C 1259.4,467.23 1259.4,466.397 1260.5,465.5 Z"/></g>
<g><path style="opacity:0.004" fill="#fe0000" d="M 1266.5,476.5 C 1267.83,477.167 1267.83,477.167 1266.5,476.5 Z"/></g>
</svg>