<?xml version="1.0" encoding="UTF-8"?>
<!DOCTYPE svg PUBLIC "-//W3C//DTD SVG 1.1//EN" "http://www.w3.org/Graphics/SVG/1.1/DTD/svg11.dtd">
<svg xmlns="http://www.w3.org/2000/svg" version="1.1" width="920px" height="242px"
    style="shape-rendering:geometricPrecision; text-rendering:geometricPrecision; image-rendering:optimizeQuality; fill-rule:evenodd; clip-rule:evenodd"
    xmlns:xlink="http://www.w3.org/1999/xlink">
    <g>
        <path style="opacity:0.8" fill="#052e16"
            d="M -0.5,-0.5 C 306.167,-0.5 612.833,-0.5 919.5,-0.5C 919.5,80.1667 919.5,160.833 919.5,241.5C 612.833,241.5 306.167,241.5 -0.5,241.5C -0.5,160.833 -0.5,80.1667 -0.5,-0.5 Z" />
    </g>
    <g>
        <path style="opacity:1" fill="#73a1cc"
            d="M 852.5,8.5 C 754.833,8.5 657.167,8.5 559.5,8.5C 559.5,43.8333 559.5,79.1667 559.5,114.5C 558.502,79.0039 558.168,43.3372 558.5,7.5C 656.668,7.16724 754.668,7.50057 852.5,8.5 Z" />
    </g>
    <g>
        <path style="opacity:1" fill="#2f69b0"
            d="M 852.5,8.5 C 852.5,43.8333 852.5,79.1667 852.5,114.5C 754.833,114.5 657.167,114.5 559.5,114.5C 559.5,79.1667 559.5,43.8333 559.5,8.5C 657.167,8.5 754.833,8.5 852.5,8.5 Z" />
    </g>
    <g>
        <path style="opacity:1" fill="#2e69b0"
            d="M 104.5,8.5 C 201.5,8.5 298.5,8.5 395.5,8.5C 395.5,43.8333 395.5,79.1667 395.5,114.5C 298.5,114.5 201.5,114.5 104.5,114.5C 104.5,79.1667 104.5,43.8333 104.5,8.5 Z" />
    </g>
    <g>
        <path style="opacity:1" fill="#bbd0e7"
            d="M 849.5,11.5 C 801.833,11.5 754.167,11.5 706.5,11.5C 706.5,44.8333 706.5,78.1667 706.5,111.5C 705.502,78.0041 705.168,44.3375 705.5,10.5C 753.67,10.1678 801.67,10.5012 849.5,11.5 Z" />
    </g>
    <g>
        <path style="opacity:1" fill="#fdfefe"
            d="M 849.5,11.5 C 849.5,44.8333 849.5,78.1667 849.5,111.5C 801.833,111.5 754.167,111.5 706.5,111.5C 706.5,78.1667 706.5,44.8333 706.5,11.5C 754.167,11.5 801.833,11.5 849.5,11.5 Z" />
    </g>
    <g>
        <path style="opacity:1" fill="#fdfdfe"
            d="M 250.5,11.5 C 297.833,11.5 345.167,11.5 392.5,11.5C 392.5,44.8333 392.5,78.1667 392.5,111.5C 345.167,111.5 297.833,111.5 250.5,111.5C 250.5,78.1667 250.5,44.8333 250.5,11.5 Z" />
    </g>
    <g>
        <path style="opacity:1" fill="#edf2f8"
            d="M 206.5,41.5 C 197.02,38.3718 187.353,35.3718 177.5,32.5C 167.584,35.1361 157.917,38.1361 148.5,41.5C 146.5,41.8333 144.5,42.1667 142.5,42.5C 142.36,40.8762 143.027,39.7096 144.5,39C 155.231,35.4428 166.064,32.2761 177,29.5C 187.862,32.5902 198.695,35.7568 209.5,39C 210.973,39.7096 211.64,40.8762 211.5,42.5C 209.784,42.3713 208.117,42.038 206.5,41.5 Z" />
    </g>
    <g>
        <path style="opacity:1" fill="#eaf0f7"
            d="M 659.5,40.5 C 650.508,37.2254 641.342,34.2254 632,31.5C 626.536,32.9796 621.37,34.9796 616.5,37.5C 610.144,38.4711 603.978,40.1377 598,42.5C 597.51,41.2068 597.343,39.8734 597.5,38.5C 609.099,35.6234 620.599,32.2901 632,28.5C 641.813,31.4116 651.647,34.2449 661.5,37C 663.555,37.6872 665.221,38.8539 666.5,40.5C 664.189,41.5751 661.856,41.5751 659.5,40.5 Z" />
    </g>
    <g>
        <path style="opacity:1" fill="#4f82bd"
            d="M 206.5,41.5 C 203.312,43.6567 199.979,43.99 196.5,42.5C 198.527,42.6621 200.527,42.4955 202.5,42C 194.041,39.2615 185.541,36.7615 177,34.5C 168.426,36.7682 159.926,39.2682 151.5,42C 153.473,42.4955 155.473,42.6621 157.5,42.5C 155.034,43.6341 152.367,43.8007 149.5,43C 150.712,41.8932 150.379,41.3932 148.5,41.5C 157.917,38.1361 167.584,35.1361 177.5,32.5C 187.353,35.3718 197.02,38.3718 206.5,41.5 Z" />
    </g>
    <g>
        <path style="opacity:1" fill="#ecf1f8"
            d="M 658.5,41.5 C 657.682,42.6925 655.349,42.8591 651.5,42C 645.15,40.2299 638.817,38.3966 632.5,36.5C 624.433,38.8917 616.267,40.8917 608,42.5C 606.5,42.3333 605,42.1667 603.5,42C 608.119,40.9619 612.452,39.4619 616.5,37.5C 621.707,36.4896 626.874,35.1563 632,33.5C 640.833,36.2315 649.667,38.8982 658.5,41.5 Z" />
    </g>
    <g>
        <path style="opacity:1" fill="#edf2f8"
            d="M 196.5,42.5 C 189.956,40.645 183.456,38.645 177,36.5C 170.584,38.8056 164.084,40.8056 157.5,42.5C 155.473,42.6621 153.473,42.4955 151.5,42C 159.926,39.2682 168.426,36.7682 177,34.5C 185.541,36.7615 194.041,39.2615 202.5,42C 200.527,42.4955 198.527,42.6621 196.5,42.5 Z" />
    </g>
    <g>
        <path style="opacity:1" fill="#3e74b6"
            d="M 771.5,45.5 C 770.778,45.9175 770.278,46.5842 770,47.5C 769.768,46.2625 769.268,45.2625 768.5,44.5C 765.634,43.1526 763.134,41.1526 761,38.5C 759.019,42.736 757.186,47.0693 755.5,51.5C 755.167,50.8333 754.833,50.1667 754.5,49.5C 755.648,47.2387 756.148,44.9054 756,42.5C 753.92,44.9928 752.086,47.6595 750.5,50.5C 749.833,51.8333 749.167,51.8333 748.5,50.5C 754.086,37.7378 763.752,30.5712 777.5,29C 774.069,33.204 772.069,38.0373 771.5,43.5C 783.5,44.1667 783.5,44.8333 771.5,45.5 Z" />
    </g>
    <g>
        <path style="opacity:1" fill="#ecf2f8"
            d="M 771.5,31.5 C 772.043,31.56 772.376,31.8933 772.5,32.5C 771.235,35.7957 770.068,39.129 769,42.5C 766.275,41.0628 764.108,39.0628 762.5,36.5C 765.331,34.2906 768.331,32.624 771.5,31.5 Z" />
    </g>
    <g>
        <path style="opacity:1" fill="#4075b7"
            d="M 316.5,29.5 C 317.978,29.238 319.311,29.5713 320.5,30.5C 317.882,33.9041 316.215,37.7375 315.5,42C 315.905,42.9454 316.572,43.6121 317.5,44C 319.9,44.1858 322.234,44.6858 324.5,45.5C 321.205,46.4015 317.872,46.4015 314.5,45.5C 314.719,46.675 314.386,47.675 313.5,48.5C 312.833,47.1667 312.167,45.8333 311.5,44.5C 308.906,43.4078 306.739,41.7411 305,39.5C 304.333,40.1667 303.667,40.8333 303,41.5C 301.833,45.1669 300.666,48.8336 299.5,52.5C 299.167,51.6667 298.833,50.8333 298.5,50C 299.249,47.4554 299.749,44.9554 300,42.5C 297.361,45.4495 295.527,48.7829 294.5,52.5C 293.325,52.719 292.325,52.3857 291.5,51.5C 296.784,40.5407 305.117,33.2074 316.5,29.5 Z" />
    </g>
    <g>
        <path style="opacity:1" fill="#f6f9fc"
            d="M 314.5,32.5 C 315.097,32.7352 315.43,33.2352 315.5,34C 314.597,36.8766 313.597,39.71 312.5,42.5C 309.891,41.5569 307.891,39.8903 306.5,37.5C 308.97,35.4618 311.637,33.7952 314.5,32.5 Z" />
    </g>
    <g>
        <path style="opacity:1" fill="#4a7cba"
            d="M 659.5,40.5 C 658.833,40.5 658.5,40.8333 658.5,41.5C 649.667,38.8982 640.833,36.2315 632,33.5C 626.874,35.1563 621.707,36.4896 616.5,37.5C 621.37,34.9796 626.536,32.9796 632,31.5C 641.342,34.2254 650.508,37.2254 659.5,40.5 Z" />
    </g>
    <g>
        <path style="opacity:1" fill="#709dcd"
            d="M 597.5,44.5 C 620.661,43.5025 643.994,43.1691 667.5,43.5C 667.768,45.099 667.434,46.4324 666.5,47.5C 666.5,47.1667 666.5,46.8333 666.5,46.5C 644.191,44.5105 621.525,43.8438 598.5,44.5C 598.167,44.5 597.833,44.5 597.5,44.5 Z" />
    </g>
    <g>
        <path style="opacity:1" fill="#fefffe"
            d="M 598.5,44.5 C 621.525,43.8438 644.191,44.5105 666.5,46.5C 643.475,47.1562 620.809,46.4895 598.5,44.5 Z" />
    </g>
    <g>
        <path style="opacity:1" fill="#8db2d6"
            d="M 768.5,44.5 C 769.268,45.2625 769.768,46.2625 770,47.5C 770.278,46.5842 770.778,45.9175 771.5,45.5C 771.5,46.5 771.5,47.5 771.5,48.5C 770.5,48.5 769.5,48.5 768.5,48.5C 768.5,47.1667 768.5,45.8333 768.5,44.5 Z" />
    </g>
    <g>
        <path style="opacity:1" fill="#ebf0f7"
            d="M 211.5,47.5 C 188.5,47.5 165.5,47.5 142.5,47.5C 142.5,46.5 142.5,45.5 142.5,44.5C 165.5,44.5 188.5,44.5 211.5,44.5C 211.5,45.5 211.5,46.5 211.5,47.5 Z" />
    </g>
    <g>
        <path style="opacity:1" fill="#dde8f3"
            d="M 597.5,44.5 C 597.833,44.5 598.167,44.5 598.5,44.5C 620.809,46.4895 643.475,47.1562 666.5,46.5C 666.5,46.8333 666.5,47.1667 666.5,47.5C 643.5,47.5 620.5,47.5 597.5,47.5C 597.5,46.5 597.5,45.5 597.5,44.5 Z" />
    </g>
    <g>
        <path style="opacity:1" fill="#4882bc"
            d="M 142.5,47.5 C 165.5,47.5 188.5,47.5 211.5,47.5C 209.833,48.1667 208.167,48.8333 206.5,49.5C 205.833,49.5 205.167,49.5 204.5,49.5C 201.167,48.1667 197.833,48.1667 194.5,49.5C 193.833,49.5 193.167,49.5 192.5,49.5C 189.5,48.1667 186.5,48.1667 183.5,49.5C 182.833,49.5 182.167,49.5 181.5,49.5C 178.833,48.1667 176.167,48.1667 173.5,49.5C 172.167,49.5 170.833,49.5 169.5,49.5C 167.5,48.1667 165.5,48.1667 163.5,49.5C 161.763,52.008 160.93,55.008 161,58.5C 160.594,55.2578 159.761,52.2578 158.5,49.5C 156.167,48.1667 153.833,48.1667 151.5,49.5C 149.689,58.4462 148.855,67.7796 149,77.5C 149.145,67.7796 148.311,58.4462 146.5,49.5C 145.167,48.8333 143.833,48.1667 142.5,47.5 Z" />
    </g>
    <g>
        <path style="opacity:1" fill="#eef2f8"
            d="M 146.5,49.5 C 148.311,58.4462 149.145,67.7796 149,77.5C 148.855,67.7796 149.689,58.4462 151.5,49.5C 151.666,59.1724 151.5,68.8391 151,78.5C 149.667,79.8333 148.333,79.8333 147,78.5C 146.5,68.8391 146.334,59.1724 146.5,49.5 Z" />
    </g>
    <g>
        <path style="opacity:1" fill="#eef3f9"
            d="M 158.5,49.5 C 159.761,52.2578 160.594,55.2578 161,58.5C 160.93,55.008 161.763,52.008 163.5,49.5C 163.832,59.5222 163.499,69.5222 162.5,79.5C 161.435,75.2163 160.602,70.8829 160,66.5C 159.667,70.8333 159.333,75.1667 159,79.5C 158.5,69.5056 158.334,59.5056 158.5,49.5 Z" />
    </g>
    <g>
        <path style="opacity:1" fill="#d6e4f0"
            d="M 604.5,77.5 C 604.5,78.1667 604.833,78.5 605.5,78.5C 604.458,79.7911 603.292,79.7911 602,78.5C 601.168,68.4834 601.334,58.4834 602.5,48.5C 603.167,58.325 603.833,67.9917 604.5,77.5 Z" />
    </g>
    <g>
        <path style="opacity:1" fill="#f7f9fc"
            d="M 605.5,78.5 C 604.833,78.5 604.5,78.1667 604.5,77.5C 604.168,67.8104 604.502,58.1437 605.5,48.5C 606.823,58.6589 606.823,68.6589 605.5,78.5 Z" />
    </g>
    <g>
        <path style="opacity:1" fill="#ebf1f7"
            d="M 614.5,52.5 C 615.21,54.7463 615.71,57.0796 616,59.5C 616.499,55.8484 616.665,52.1817 616.5,48.5C 617.828,53.2876 618.495,58.4543 618.5,64C 618.167,69.1667 617.833,74.3333 617.5,79.5C 616.25,75.254 615.417,70.9206 615,66.5C 614.667,70.8333 614.333,75.1667 614,79.5C 613.181,67.794 613.347,58.794 614.5,52.5 Z" />
    </g>
    <g>
        <path style="opacity:1" fill="#75a2ce"
            d="M 616.5,48.5 C 616.665,52.1817 616.499,55.8484 616,59.5C 615.71,57.0796 615.21,54.7463 614.5,52.5C 615.167,51.1667 615.833,49.8333 616.5,48.5 Z" />
    </g>
    <g>
        <path style="opacity:1" fill="#cddbec"
            d="M 628.5,49.5 C 627.5,49.5 626.5,49.5 625.5,49.5C 625.168,59.585 625.501,68.9184 626.5,77.5C 626.833,77.5 627.167,77.5 627.5,77.5C 628.376,77.3691 629.043,77.7025 629.5,78.5C 627.955,79.4519 626.288,79.7852 624.5,79.5C 624.5,69.1667 624.5,58.8333 624.5,48.5C 626.099,48.2322 627.432,48.5655 628.5,49.5 Z" />
    </g>
    <g>
        <path style="opacity:1" fill="#fdfefe"
            d="M 628.5,49.5 C 625.833,54.1667 625.833,58.8333 628.5,63.5C 626.564,67.7147 625.897,72.3814 626.5,77.5C 625.501,68.9184 625.168,59.585 625.5,49.5C 626.5,49.5 627.5,49.5 628.5,49.5 Z" />
    </g>
    <g>
        <path style="opacity:1" fill="#e0e8f3"
            d="M 169.5,49.5 C 170.833,49.5 172.167,49.5 173.5,49.5C 170.953,54.1724 170.953,58.8391 173.5,63.5C 171.641,67.9218 170.974,72.5885 171.5,77.5C 172.675,77.281 173.675,77.6143 174.5,78.5C 172.955,79.4519 171.288,79.7852 169.5,79.5C 169.5,69.5 169.5,59.5 169.5,49.5 Z" />
    </g>
    <g>
        <path style="opacity:1" fill="#f6f8fb"
            d="M 639.5,57.5 C 638.835,55.3021 638.168,52.9688 637.5,50.5C 636.197,53.6447 636.197,56.6447 637.5,59.5C 637.629,61.2161 637.962,62.8828 638.5,64.5C 638.672,65.4916 638.338,66.1583 637.5,66.5C 635.623,60.9819 635.123,55.3153 636,49.5C 637,48.1667 638,48.1667 639,49.5C 639.497,52.146 639.664,54.8127 639.5,57.5 Z" />
    </g>
    <g>
        <path style="opacity:1" fill="#a9c5e0"
            d="M 639.5,57.5 C 638.833,58.1667 638.167,58.8333 637.5,59.5C 636.197,56.6447 636.197,53.6447 637.5,50.5C 638.168,52.9688 638.835,55.3021 639.5,57.5 Z" />
    </g>
    <g>
        <path style="opacity:1" fill="#ebf0f7"
            d="M 648.5,48.5 C 650.556,49.5929 651.556,51.4262 651.5,54C 651.167,55.5 650.833,57 650.5,58.5C 649.682,55.8929 649.182,53.2263 649,50.5C 648.333,59.5 648.333,68.5 649,77.5C 649.182,74.7737 649.682,72.1071 650.5,69.5C 651.655,72.4459 651.821,75.4459 651,78.5C 649.667,79.8333 648.333,79.8333 647,78.5C 645.9,68.2453 646.4,58.2453 648.5,48.5 Z" />
    </g>
    <g>
        <path style="opacity:1" fill="#fafbfd"
            d="M 659.5,48.5 C 660.496,48.4142 661.329,48.7476 662,49.5C 662.5,59.4944 662.666,69.4944 662.5,79.5C 661.167,79.5 659.833,79.5 658.5,79.5C 658.192,69.0846 658.525,58.7513 659.5,48.5 Z" />
    </g>
    <g>
        <path style="opacity:1" fill="#90b4d7"
            d="M 184.5,50.5 C 185.473,52.9479 185.806,55.6146 185.5,58.5C 184.209,58.2627 183.209,58.596 182.5,59.5C 181.2,56.9759 181.2,54.3092 182.5,51.5C 183.308,53.4233 183.808,55.4233 184,57.5C 184.497,55.1902 184.663,52.8568 184.5,50.5 Z" />
    </g>
    <g>
        <path style="opacity:1" fill="#e3ecf5"
            d="M 192.5,49.5 C 193.167,49.5 193.833,49.5 194.5,49.5C 195.117,49.6107 195.617,49.944 196,50.5C 196.818,53.2272 196.652,55.8938 195.5,58.5C 194.686,56.2338 194.186,53.9005 194,51.5C 193.333,60.1667 193.333,68.8333 194,77.5C 194.182,74.7737 194.682,72.1071 195.5,69.5C 196.655,72.4459 196.821,75.4459 196,78.5C 194.644,79.3802 193.144,79.7135 191.5,79.5C 191.173,69.3194 191.506,59.3194 192.5,49.5 Z" />
    </g>
    <g>
        <path style="opacity:1" fill="#e2ebf4"
            d="M 204.5,49.5 C 205.167,49.5 205.833,49.5 206.5,49.5C 207.494,59.3194 207.827,69.3194 207.5,79.5C 205.856,79.7135 204.356,79.3802 203,78.5C 202.333,69.1667 202.333,59.8333 203,50.5C 203.383,49.944 203.883,49.6107 204.5,49.5 Z" />
    </g>
    <g>
        <path style="opacity:1" fill="#759fcd"
            d="M 659.5,50.5 C 660.826,54.6139 661.493,59.1139 661.5,64C 661.167,68.5 660.833,73 660.5,77.5C 659.502,68.5246 659.168,59.5246 659.5,50.5 Z" />
    </g>
    <g>
        <path style="opacity:1" fill="#97b1d7"
            d="M 204.5,51.5 C 205.825,55.4451 206.492,59.7784 206.5,64.5C 206.167,68.8333 205.833,73.1667 205.5,77.5C 204.502,68.8589 204.169,60.1922 204.5,51.5 Z" />
    </g>
    <g>
        <path style="opacity:1" fill="#6e98ca"
            d="M 340.5,53.5 C 332.648,53.1746 324.982,53.508 317.5,54.5C 316.957,54.44 316.624,54.1067 316.5,53.5C 324.657,52.1796 332.657,52.1796 340.5,53.5 Z" />
    </g>
    <g>
        <path style="opacity:1" fill="#4678b8"
            d="M 773.5,52.5 C 781.528,52.169 789.528,52.5023 797.5,53.5C 791.872,54.4954 786.206,54.8288 780.5,54.5C 779.833,70.5 779.167,70.5 778.5,54.5C 776.219,54.9227 774.552,54.256 773.5,52.5 Z" />
    </g>
    <g>
        <path style="opacity:1" fill="#2e6ab0"
            d="M 313.5,52.5 C 314.773,53.0768 314.773,53.7435 313.5,54.5C 312.537,54.0302 312.537,53.3635 313.5,52.5 Z" />
    </g>
    <g>
        <path style="opacity:1" fill="#346db2"
            d="M 317.5,54.5 C 324.982,53.508 332.648,53.1746 340.5,53.5C 335.36,54.4881 330.026,54.8214 324.5,54.5C 323.833,71.8333 323.167,71.8333 322.5,54.5C 320.833,54.5 319.167,54.5 317.5,54.5 Z" />
    </g>
    <g>
        <path style="opacity:1" fill="#306cb1"
            d="M 343.5,52.5 C 344.773,53.0768 344.773,53.7435 343.5,54.5C 342.537,54.0302 342.537,53.3635 343.5,52.5 Z" />
    </g>
    <g>
        <path style="opacity:1" fill="#5789c1"
            d="M 799.5,52.5 C 801.337,52.6395 801.67,53.3061 800.5,54.5C 799.702,54.0431 799.369,53.3764 799.5,52.5 Z" />
    </g>
    <g>
        <path style="opacity:1" fill="#3870b4"
            d="M 312.5,57.5 C 313.777,58.6936 314.444,60.3603 314.5,62.5C 314.167,64.1667 313.833,65.8333 313.5,67.5C 312.513,64.2317 312.18,60.8984 312.5,57.5 Z" />
    </g>
    <g>
        <path style="opacity:1" fill="#4075b7"
            d="M 342.5,57.5 C 343.777,58.6936 344.444,60.3603 344.5,62.5C 344.167,64.1667 343.833,65.8333 343.5,67.5C 342.513,64.2317 342.18,60.8984 342.5,57.5 Z" />
    </g>
    <g>
        <path style="opacity:1" fill="#4378b8"
            d="M 747.5,56.5 C 749.22,58.6581 750.053,61.3248 750,64.5C 751.333,65.8333 752.667,65.8333 754,64.5C 754.182,61.7737 754.682,59.1071 755.5,56.5C 758.507,64.1382 756.174,67.1382 748.5,65.5C 747.593,62.5788 747.26,59.5788 747.5,56.5 Z" />
    </g>
    <g>
        <path style="opacity:1" fill="#4b7ebb"
            d="M 760.5,56.5 C 762.722,56.178 764.556,56.8446 766,58.5C 766.821,61.5541 766.655,64.5541 765.5,67.5C 764.516,64.5719 764.183,61.5719 764.5,58.5C 763.167,58.5 761.833,58.5 760.5,58.5C 760.817,61.5719 760.484,64.5719 759.5,67.5C 758.012,63.5702 758.346,59.9035 760.5,56.5 Z" />
    </g>
    <g>
        <path style="opacity:1" fill="#7099c9"
            d="M 769.5,56.5 C 770.787,57.8714 771.453,59.7047 771.5,62C 771.167,63.8333 770.833,65.6667 770.5,67.5C 769.511,63.8927 769.177,60.226 769.5,56.5 Z" />
    </g>
    <g>
        <path style="opacity:1" fill="#3870b4"
            d="M 783.5,56.5 C 784.923,59.3829 786.256,62.3829 787.5,65.5C 788.086,65.2907 788.586,64.9574 789,64.5C 790,53.8333 791,53.8333 792,64.5C 792.718,65.4506 793.551,65.6172 794.5,65C 795.125,62.1997 795.792,59.3664 796.5,56.5C 797.553,59.8151 797.553,63.1485 796.5,66.5C 792.486,66.6655 788.486,66.4988 784.5,66C 783.549,62.9433 783.216,59.7766 783.5,56.5 Z" />
    </g>
    <g>
        <path style="opacity:1" fill="#4f81bd"
            d="M 799.5,56.5 C 800.787,57.8714 801.453,59.7047 801.5,62C 801.167,63.8333 800.833,65.6667 800.5,67.5C 799.511,63.8927 799.177,60.226 799.5,56.5 Z" />
    </g>
    <g>
        <path style="opacity:1" fill="#356db2"
            d="M 811.5,58.5 C 811.806,61.3854 811.473,64.0521 810.5,66.5C 810.662,64.4727 810.495,62.4727 810,60.5C 809.047,58.4078 807.714,58.0745 806,59.5C 805.814,61.9005 805.314,64.2338 804.5,66.5C 803.1,63.1378 803.433,59.9711 805.5,57C 807.84,56.2516 809.84,56.7516 811.5,58.5 Z" />
    </g>
    <g>
        <path style="opacity:1" fill="#4379b8"
            d="M 348.5,57.5 C 355.32,57.6011 357.32,60.9345 354.5,67.5C 353.52,64.9135 353.187,62.2469 353.5,59.5C 351.856,59.2865 350.356,59.6198 349,60.5C 348.814,62.9005 348.314,65.2338 347.5,67.5C 346.146,63.9795 346.48,60.6462 348.5,57.5 Z" />
    </g>
    <g>
        <path style="opacity:1" fill="#3f74b6"
            d="M 303.5,57.5 C 310.32,57.6011 312.32,60.9345 309.5,67.5C 308.52,64.9135 308.187,62.2469 308.5,59.5C 306.856,59.2865 305.356,59.6198 304,60.5C 303.667,62.8333 303.333,65.1667 303,67.5C 302.253,64.0764 302.42,60.7431 303.5,57.5 Z" />
    </g>
    <g>
        <path style="opacity:1" fill="#aac7e1"
            d="M 811.5,58.5 C 812.803,61.3553 812.803,64.3553 811.5,67.5C 810.893,67.3764 810.56,67.0431 810.5,66.5C 811.473,64.0521 811.806,61.3854 811.5,58.5 Z" />
    </g>
    <g>
        <path style="opacity:1" fill="#7da7d0"
            d="M 628.5,63.5 C 627.559,68.0704 627.226,72.737 627.5,77.5C 627.167,77.5 626.833,77.5 626.5,77.5C 625.897,72.3814 626.564,67.7147 628.5,63.5 Z" />
    </g>
    <g>
        <path style="opacity:1" fill="#4577b8"
            d="M 291.5,57.5 C 293.197,59.3052 294.03,61.6385 294,64.5C 295.333,65.8333 296.667,65.8333 298,64.5C 299.327,55.1664 299.993,55.1664 300,64.5C 298.214,67.3616 295.881,68.0283 293,66.5C 291.711,63.6492 291.211,60.6492 291.5,57.5 Z" />
    </g>
    <g>
        <path style="opacity:1" fill="#4577b8"
            d="M 326.5,57.5 C 328.154,59.5597 329.154,62.0597 329.5,65C 330.784,65.6838 331.951,65.5171 333,64.5C 333.667,55.1667 334.333,55.1667 335,64.5C 336.011,65.3366 337.178,65.67 338.5,65.5C 338.187,62.7531 338.52,60.0865 339.5,57.5C 340.652,60.1062 340.818,62.7728 340,65.5C 339.261,66.5742 338.261,67.2409 337,67.5C 334.21,66.8683 331.377,66.7016 328.5,67C 326.66,64.1737 325.994,61.0071 326.5,57.5 Z" />
    </g>
    <g>
        <path style="opacity:1" fill="#b4cde4"
            d="M 638.5,64.5 C 639.404,65.209 639.737,66.209 639.5,67.5C 638.834,70.6893 638.167,74.0227 637.5,77.5C 636.52,74.9135 636.187,72.2469 636.5,69.5C 637.404,68.791 637.737,67.791 637.5,66.5C 638.338,66.1583 638.672,65.4916 638.5,64.5 Z" />
    </g>
    <g>
        <path style="opacity:1" fill="#eaf0f7"
            d="M 181.5,49.5 C 182.167,49.5 182.833,49.5 183.5,49.5C 184.167,49.5 184.5,49.8333 184.5,50.5C 184.663,52.8568 184.497,55.1902 184,57.5C 183.808,55.4233 183.308,53.4233 182.5,51.5C 181.2,54.3092 181.2,56.9759 182.5,59.5C 184.72,65.6569 185.553,71.9902 185,78.5C 183.644,79.3802 182.144,79.7135 180.5,79.5C 180.187,75.9581 180.521,72.6248 181.5,69.5C 181.187,72.2469 181.52,74.9135 182.5,77.5C 183.803,74.3553 183.803,71.3553 182.5,68.5C 180.401,62.1459 180.068,55.8125 181.5,49.5 Z" />
    </g>
    <g>
        <path style="opacity:1" fill="#9abadb"
            d="M 182.5,68.5 C 183.803,71.3553 183.803,74.3553 182.5,77.5C 181.52,74.9135 181.187,72.2469 181.5,69.5C 182.167,69.5 182.5,69.1667 182.5,68.5 Z" />
    </g>
    <g>
        <path style="opacity:1" fill="#f2f6fa"
            d="M 639.5,67.5 C 639.5,71.5 639.5,75.5 639.5,79.5C 638.167,79.5 636.833,79.5 635.5,79.5C 635.187,75.9581 635.521,72.6248 636.5,69.5C 636.187,72.2469 636.52,74.9135 637.5,77.5C 638.167,74.0227 638.834,70.6893 639.5,67.5 Z" />
    </g>
    <g>
        <path style="opacity:1" fill="#4176b7"
            d="M 769.5,70.5 C 771.256,71.5521 771.923,73.2188 771.5,75.5C 773.833,75.5 776.167,75.5 778.5,75.5C 779.167,68.8333 779.833,68.8333 780.5,75.5C 785.536,75.0616 790.369,75.7283 795,77.5C 796.673,74.9989 798.507,72.6655 800.5,70.5C 800.379,72.9768 799.379,75.4768 797.5,78C 799.585,79.0414 801.252,80.5414 802.5,82.5C 805.653,78.8714 808.32,74.8714 810.5,70.5C 811.614,71.723 811.781,73.0563 811,74.5C 805.31,85.521 796.31,91.8544 784,93.5C 782.833,93.1667 781.667,92.8333 780.5,92.5C 786.458,91.5696 792.124,89.7363 797.5,87C 801.492,83.9196 800.992,81.4196 796,79.5C 793.167,82.3333 790.333,85.1667 787.5,88C 784.106,90.0981 780.439,91.0981 776.5,91C 774.23,87.7295 772.396,84.2295 771,80.5C 766.582,79.4009 766.415,77.9009 770.5,76C 769.594,74.3005 769.261,72.4672 769.5,70.5 Z" />
    </g>
    <g>
        <path style="opacity:1" fill="#3f75b6"
            d="M 353.5,70.5 C 354.497,70.4701 355.164,70.9701 355.5,72C 349.941,86.2504 339.608,93.2504 324.5,93C 332.144,92.0945 338.811,89.0945 344.5,84C 343.275,82.437 341.775,81.2703 340,80.5C 336.128,84.0362 331.962,87.2029 327.5,90C 325.179,90.8365 322.845,91.1699 320.5,91C 318.264,87.7494 316.43,84.2494 315,80.5C 313.795,79.9288 312.628,79.2621 311.5,78.5C 312.881,76.3651 313.881,74.0318 314.5,71.5C 315.167,73.1667 315.833,74.8333 316.5,76.5C 318.409,75.6518 320.409,75.3184 322.5,75.5C 323.167,70.1667 323.833,70.1667 324.5,75.5C 329.154,75.1835 333.654,75.8501 338,77.5C 340.235,76.1038 341.402,74.1038 341.5,71.5C 342.675,71.281 343.675,71.6143 344.5,72.5C 343.289,74.4219 341.956,76.2552 340.5,78C 342.609,79.1411 344.442,80.6411 346,82.5C 349.275,78.9434 351.775,74.9434 353.5,70.5 Z" />
    </g>
    <g>
        <path style="opacity:1" fill="#f0f4f9"
            d="M 323.5,77.5 C 328.051,77.0527 332.384,77.7194 336.5,79.5C 333.247,84.5953 328.747,87.9286 323,89.5C 323.353,85.5873 323.52,81.5873 323.5,77.5 Z" />
    </g>
    <g>
        <path style="opacity:1" fill="#e4ecf5"
            d="M 317.5,77.5 C 319.167,77.5 320.833,77.5 322.5,77.5C 322.176,89.3623 320.176,90.029 316.5,79.5C 316.863,78.8165 317.196,78.1499 317.5,77.5 Z" />
    </g>
    <g>
        <path style="opacity:1" fill="#99b9da"
            d="M 597.5,81.5 C 620.661,80.5025 643.994,80.1691 667.5,80.5C 667.5,81.8333 667.5,83.1667 667.5,84.5C 643.994,84.8309 620.661,84.4975 597.5,83.5C 689.5,82.8333 689.5,82.1667 597.5,81.5 Z" />
    </g>
    <g>
        <path style="opacity:1" fill="#6396c6"
            d="M 215.5,86.5 C 114.167,87.1667 114.167,87.8333 215.5,88.5C 190.005,89.4978 164.339,89.8311 138.5,89.5C 138.5,88.1667 138.5,86.8333 138.5,85.5C 164.339,85.1689 190.005,85.5022 215.5,86.5 Z" />
    </g>
    <g>
        <path style="opacity:1" fill="#9ebfdd"
            d="M 219.5,91.5 C 191.147,90.8417 163.147,91.5084 135.5,93.5C 134.596,92.791 134.263,91.791 134.5,90.5C 163.005,90.1687 191.338,90.502 219.5,91.5 Z" />
    </g>
    <g>
        <path style="opacity:1" fill="#d4e2f0"
            d="M 674.5,91.5 C 646.147,90.8417 618.147,91.5084 590.5,93.5C 589.596,92.791 589.263,91.791 589.5,90.5C 618.005,90.1687 646.338,90.502 674.5,91.5 Z" />
    </g>
    <g>
        <path style="opacity:1" fill="#2f69b0"
            d="M 234.5,139.5 C 252.539,138.874 261.873,147.541 262.5,165.5C 251.5,165.5 240.5,165.5 229.5,165.5C 230.43,174.648 235.43,177.815 244.5,175C 249.601,171.273 255.268,170.44 261.5,172.5C 259.448,179.055 255.114,183.555 248.5,186C 233.24,190.445 222.407,185.611 216,171.5C 212.27,154.694 218.437,144.027 234.5,139.5 Z" />
    </g>
    <g>
        <path style="opacity:1" fill="#306ab0"
            d="M 285.5,139.5 C 291.762,139.432 297.762,140.432 303.5,142.5C 302.772,146.406 300.938,149.74 298,152.5C 293.574,149.751 289.407,149.918 285.5,153C 285.645,153.772 285.978,154.439 286.5,155C 293.625,156.472 299.792,159.639 305,164.5C 307.649,174.36 304.482,181.527 295.5,186C 289.5,186.667 283.5,186.667 277.5,186C 274.751,184.877 272.251,183.377 270,181.5C 270.242,177.393 272.075,174.06 275.5,171.5C 279.546,175.091 284.212,176.257 289.5,175C 291.527,173.604 291.86,171.938 290.5,170C 283.861,168.265 278.028,165.098 273,160.5C 269.889,149.12 274.056,142.12 285.5,139.5 Z" />
    </g>
    <g>
        <path style="opacity:1" fill="#306ab0"
            d="M 331.5,139.5 C 335.56,139.485 339.56,139.985 343.5,141C 345.67,141.811 347.337,143.145 348.5,145C 347.048,148.679 345.215,152.179 343,155.5C 336.413,149.878 330.413,150.544 325,157.5C 321.815,168.642 325.981,174.475 337.5,175C 339.664,174.086 341.664,172.919 343.5,171.5C 345.268,174.982 346.935,178.482 348.5,182C 346.874,183.819 344.874,185.152 342.5,186C 327.976,189.171 317.81,184.005 312,170.5C 309.455,154.254 315.955,143.92 331.5,139.5 Z" />
    </g>
    <g>
        <path style="opacity:1" fill="#2f69b0"
            d="M 181.5,140.5 C 194.071,137.195 202.237,141.528 206,153.5C 206.5,164.161 206.667,174.828 206.5,185.5C 201.5,185.5 196.5,185.5 191.5,185.5C 191.666,175.828 191.5,166.161 191,156.5C 185.62,149.703 180.62,150.036 176,157.5C 175.5,166.827 175.334,176.161 175.5,185.5C 170.833,185.5 166.167,185.5 161.5,185.5C 161.5,170.833 161.5,156.167 161.5,141.5C 166.167,141.5 170.833,141.5 175.5,141.5C 175.343,142.873 175.51,144.207 176,145.5C 177.812,143.7 179.645,142.033 181.5,140.5 Z" />
    </g>
    <g>
        <path style="opacity:1" fill="#2f69b0"
            d="M 373.5,139.5 C 391.46,140.292 400.293,149.625 400,167.5C 393.927,185.285 382.094,190.785 364.5,184C 353.219,175.533 350.385,164.7 356,151.5C 360.4,145.244 366.234,141.244 373.5,139.5 Z" />
    </g>
    <g>
        <path style="opacity:1" fill="#2e68af"
            d="M 630.5,185.5 C 625.833,185.5 621.167,185.5 616.5,185.5C 616.5,170.833 616.5,156.167 616.5,141.5C 621.167,141.5 625.833,141.5 630.5,141.5C 630.343,142.873 630.51,144.207 631,145.5C 637.769,140.368 645.269,139.201 653.5,142C 658.174,144.845 660.674,149.012 661,154.5C 661.5,165.161 661.667,175.828 661.5,186.5C 656.5,186.5 651.5,186.5 646.5,186.5C 646.666,176.494 646.5,166.494 646,156.5C 643.487,152.788 639.987,151.622 635.5,153C 633.667,154.167 632.167,155.667 631,157.5C 630.5,166.827 630.334,176.161 630.5,185.5 Z" />
    </g>
    <g>
        <path style="opacity:1" fill="#2f69b0"
            d="M 690.5,139.5 C 709.027,139.028 718.36,148.028 718.5,166.5C 707.162,166.333 695.828,166.5 684.5,167C 685.897,174.925 690.563,177.925 698.5,176C 701.239,175.088 703.572,173.588 705.5,171.5C 709.592,172.01 713.592,172.843 717.5,174C 715.529,178.968 712.196,182.635 707.5,185C 697.477,188.799 687.81,188.132 678.5,183C 670.753,174.841 668.586,165.341 672,154.5C 675.389,145.932 681.556,140.932 690.5,139.5 Z" />
    </g>
    <g>
        <path style="opacity:1" fill="#3069b0"
            d="M 741.5,139.5 C 748.195,139.453 754.528,140.953 760.5,144C 758.406,146.421 756.74,149.088 755.5,152C 752.558,151.689 749.558,151.189 746.5,150.5C 741.943,150.828 740.943,152.661 743.5,156C 748.313,157.366 752.979,159.033 757.5,161C 764.451,169.867 763.451,177.867 754.5,185C 746.992,187.986 739.325,188.32 731.5,186C 728.991,184.579 726.657,182.912 724.5,181C 726.543,177.747 728.71,174.58 731,171.5C 735.695,175.538 741.028,176.538 747,174.5C 747.72,172.888 747.554,171.388 746.5,170C 740.611,168.264 735.111,165.764 730,162.5C 726.05,155.027 727.217,148.527 733.5,143C 736.309,141.907 738.976,140.74 741.5,139.5 Z" />
    </g>
    <g>
        <path style="opacity:1" fill="#3069b0"
            d="M 788.5,139.5 C 792.964,139.598 797.297,140.431 801.5,142C 802.99,142.745 803.99,143.912 804.5,145.5C 803.003,149.162 801.503,152.828 800,156.5C 795.485,152.204 790.319,151.37 784.5,154C 777.555,161.047 777.889,167.714 785.5,174C 790.966,176.548 795.8,175.714 800,171.5C 801.896,174.796 803.396,178.296 804.5,182C 803.033,184.735 800.7,186.402 797.5,187C 777.372,188.872 767.538,179.705 768,159.5C 770.718,148.616 777.551,141.949 788.5,139.5 Z" />
    </g>
    <g>
        <path style="opacity:1" fill="#3069b0"
            d="M 830.5,139.5 C 853.51,142.186 861.344,154.52 854,176.5C 842.645,189.559 829.978,190.892 816,180.5C 806.99,168.591 807.49,157.091 817.5,146C 821.407,142.792 825.74,140.625 830.5,139.5 Z" />
    </g>
    <g>
        <path style="opacity:1" fill="#2d68af"
            d="M 135.5,141.5 C 140.167,141.5 144.833,141.5 149.5,141.5C 149.5,151.167 149.5,160.833 149.5,170.5C 149.006,178.832 144.673,183.998 136.5,186C 128.293,187.149 120.293,186.482 112.5,184C 109.269,181.433 106.769,178.266 105,174.5C 104.5,163.505 104.333,152.505 104.5,141.5C 109.167,141.5 113.833,141.5 118.5,141.5C 118.334,150.506 118.5,159.506 119,168.5C 120.98,173.906 124.814,175.739 130.5,174C 132.286,173.215 133.786,172.049 135,170.5C 135.5,160.839 135.666,151.172 135.5,141.5 Z" />
    </g>
    <g>
        <path style="opacity:1" fill="#81aad2"
            d="M 135.5,141.5 C 140.305,140.513 145.305,140.179 150.5,140.5C 150.827,150.681 150.494,160.681 149.5,170.5C 149.5,160.833 149.5,151.167 149.5,141.5C 144.833,141.5 140.167,141.5 135.5,141.5 Z" />
    </g>
    <g>
        <path style="opacity:1" fill="#3069b0"
            d="M 558.5,141.5 C 563.5,141.5 568.5,141.5 573.5,141.5C 573.334,150.839 573.5,160.173 574,169.5C 574.985,173.666 577.652,175.666 582,175.5C 585.911,175.207 588.578,173.207 590,169.5C 590.5,160.173 590.666,150.839 590.5,141.5C 595.167,141.5 599.833,141.5 604.5,141.5C 604.915,153.562 604.415,165.562 603,177.5C 598.125,185.103 591.125,188.436 582,187.5C 572.199,188.686 564.866,185.019 560,176.5C 558.543,164.935 558.043,153.268 558.5,141.5 Z" />
    </g>
    <g>
        <path style="opacity:1" fill="#7aa5d0"
            d="M 616.5,141.5 C 616.5,156.167 616.5,170.833 616.5,185.5C 621.167,185.5 625.833,185.5 630.5,185.5C 625.695,186.487 620.695,186.821 615.5,186.5C 615.171,171.324 615.504,156.324 616.5,141.5 Z" />
    </g>
    <g>
        <path style="opacity:1" fill="#f8fafc"
            d="M 236.5,149.5 C 243.004,148.733 247.004,151.4 248.5,157.5C 242.463,157.829 236.463,157.496 230.5,156.5C 231.833,153.507 233.833,151.173 236.5,149.5 Z" />
    </g>
    <g>
        <path style="opacity:1" fill="#fbfcfd"
            d="M 690.5,150.5 C 693.518,150.335 696.518,150.502 699.5,151C 702.033,152.033 703.699,153.867 704.5,156.5C 698.167,157.833 691.833,157.833 685.5,156.5C 687.19,154.481 688.856,152.481 690.5,150.5 Z" />
    </g>
    <g>
        <path style="opacity:1" fill="#f7fafc"
            d="M 374.5,151.5 C 382.596,151.601 387.262,155.601 388.5,163.5C 385.472,174.847 378.805,177.68 368.5,172C 362.952,162.805 364.952,155.972 374.5,151.5 Z" />
    </g>
    <g>
        <path style="opacity:1" fill="#fafcfd"
            d="M 829.5,152.5 C 840.493,151.661 845.66,156.661 845,167.5C 841.832,174.168 836.665,176.668 829.5,175C 822.93,171.345 820.763,165.845 823,158.5C 825.063,156.266 827.229,154.266 829.5,152.5 Z" />
    </g>
    <g>
        <path style="opacity:1" fill="#376fb3"
            d="M 186.5,207.5 C 186.335,211.182 186.501,214.848 187,218.5C 187.717,217.956 188.217,217.289 188.5,216.5C 189.267,215.828 189.934,214.995 190.5,214C 191.635,213.251 192.635,213.417 193.5,214.5C 192.5,215.833 191.5,217.167 190.5,218.5C 191.833,220.833 193.167,223.167 194.5,225.5C 193.635,226.583 192.635,226.749 191.5,226C 190.267,224.333 188.933,222.833 187.5,221.5C 186.566,222.568 186.232,223.901 186.5,225.5C 185.5,225.5 184.5,225.5 183.5,225.5C 183.5,219.5 183.5,213.5 183.5,207.5C 184.5,207.5 185.5,207.5 186.5,207.5 Z" />
    </g>
    <g>
        <path style="opacity:1" fill="#a7c5df"
            d="M 186.5,207.5 C 187.167,210.5 187.833,213.5 188.5,216.5C 188.217,217.289 187.717,217.956 187,218.5C 186.501,214.848 186.335,211.182 186.5,207.5 Z" />
    </g>
    <g>
        <path style="opacity:1" fill="#8bb2d5"
            d="M 256.5,207.5 C 255.88,213.926 256.547,219.926 258.5,225.5C 257.791,226.404 256.791,226.737 255.5,226.5C 255.177,219.978 255.51,213.645 256.5,207.5 Z" />
    </g>
    <g>
        <path style="opacity:1" fill="#9fc0dd"
            d="M 117.5,208.5 C 118.49,214.31 118.823,220.31 118.5,226.5C 116.901,226.768 115.568,226.434 114.5,225.5C 115.5,225.5 116.5,225.5 117.5,225.5C 117.5,219.833 117.5,214.167 117.5,208.5 Z" />
    </g>
    <g>
        <path style="opacity:1" fill="#a6c4df"
            d="M 573.5,208.5 C 573.171,214.537 573.504,220.537 574.5,226.5C 575.168,223.694 575.834,221.028 576.5,218.5C 576.5,221.5 576.5,224.5 576.5,227.5C 575.167,227.5 573.833,227.5 572.5,227.5C 572.177,220.978 572.51,214.645 573.5,208.5 Z" />
    </g>
    <g>
        <path style="opacity:1" fill="#87afd5"
            d="M 575.5,208.5 C 576.167,210.5 576.833,212.5 577.5,214.5C 577.44,215.043 577.107,215.376 576.5,215.5C 575.526,213.257 575.192,210.924 575.5,208.5 Z" />
    </g>
    <g>
        <path style="opacity:1" fill="#306ab0"
            d="M 104.5,208.5 C 105.978,208.238 107.311,208.571 108.5,209.5C 110.445,212.393 112.111,215.393 113.5,218.5C 113.987,219.473 114.487,220.473 115,221.5C 115.499,217.179 115.666,212.846 115.5,208.5C 116.167,208.5 116.833,208.5 117.5,208.5C 117.5,214.167 117.5,219.833 117.5,225.5C 116.5,225.5 115.5,225.5 114.5,225.5C 112.404,221.631 110.07,217.964 107.5,214.5C 106.687,216.775 106.02,220.441 105.5,225.5C 104.505,219.872 104.171,214.206 104.5,208.5 Z" />
    </g>
    <g>
        <path style="opacity:1" fill="#bfd5e8"
            d="M 115.5,208.5 C 115.666,212.846 115.499,217.179 115,221.5C 114.487,220.473 113.987,219.473 113.5,218.5C 114.167,215.167 114.833,211.833 115.5,208.5 Z" />
    </g>
    <g>
        <path style="opacity:1" fill="#3a70b4"
            d="M 216.5,224.5 C 216.666,220.486 216.499,216.486 216,212.5C 215.283,213.044 214.783,213.711 214.5,214.5C 211.58,229.123 208.413,229.123 205,214.5C 204.501,218.486 204.334,222.486 204.5,226.5C 203.022,226.762 201.689,226.429 200.5,225.5C 201.331,219.865 201.998,214.199 202.5,208.5C 204.144,208.286 205.644,208.62 207,209.5C 208.586,213.344 209.586,217.344 210,221.5C 211.359,217.198 212.526,212.864 213.5,208.5C 215.167,208.5 216.833,208.5 218.5,208.5C 218.701,214.509 219.034,220.509 219.5,226.5C 217.821,226.715 216.821,226.048 216.5,224.5 Z" />
    </g>
    <g>
        <path style="opacity:1" fill="#3c72b5"
            d="M 561.5,209.5 C 564.898,209.18 568.232,209.513 571.5,210.5C 563.268,210.56 560.101,214.56 562,222.5C 564.574,224.002 567.407,225.002 570.5,225.5C 563.496,228.828 559.163,226.494 557.5,218.5C 557.79,214.954 559.124,211.954 561.5,209.5 Z" />
    </g>
    <g>
        <path style="opacity:1" fill="#4c7fbb"
            d="M 600.5,208.5 C 603.861,209.203 604.194,210.537 601.5,212.5C 599.358,211.563 599.024,210.23 600.5,208.5 Z" />
    </g>
    <g>
        <path style="opacity:1" fill="#3970b3"
            d="M 136.5,209.5 C 137.434,210.568 137.768,211.901 137.5,213.5C 141.5,214.167 141.5,214.833 137.5,215.5C 137.5,218.167 137.5,220.833 137.5,223.5C 138.5,223.5 139.5,223.5 140.5,223.5C 140.5,224.5 140.5,225.5 140.5,226.5C 138.278,226.822 136.444,226.155 135,224.5C 134.963,220.911 134.13,217.578 132.5,214.5C 133.866,212.773 135.2,211.106 136.5,209.5 Z" />
    </g>
    <g>
        <path style="opacity:1" fill="#a2c1de"
            d="M 104.5,208.5 C 104.171,214.206 104.505,219.872 105.5,225.5C 106.02,220.441 106.687,216.775 107.5,214.5C 107.5,218.5 107.5,222.5 107.5,226.5C 106.167,226.5 104.833,226.5 103.5,226.5C 103.177,220.31 103.51,214.31 104.5,208.5 Z" />
    </g>
    <g>
        <path style="opacity:1" fill="#3970b3"
            d="M 124.5,212.5 C 129.697,212.695 132.03,215.362 131.5,220.5C 121.235,220.447 120.902,221.78 130.5,224.5C 127.212,227.156 124.045,226.823 121,223.5C 119.663,218.872 120.83,215.205 124.5,212.5 Z" />
    </g>
    <g>
        <path style="opacity:1" fill="#4578b8"
            d="M 141.5,213.5 C 142.822,213.33 143.989,213.663 145,214.5C 146.348,223.804 147.681,223.804 149,214.5C 150.011,213.663 151.178,213.33 152.5,213.5C 153.389,222.629 154.723,222.629 156.5,213.5C 157.5,213.5 158.5,213.5 159.5,213.5C 158.348,217.775 157.348,222.108 156.5,226.5C 155.167,226.5 153.833,226.5 152.5,226.5C 151.586,217.396 150.253,217.396 148.5,226.5C 147.167,226.5 145.833,226.5 144.5,226.5C 143.879,222.058 142.879,217.725 141.5,213.5 Z" />
    </g>
    <g>
        <path style="opacity:1" fill="#3b71b4"
            d="M 165.5,212.5 C 172.104,213.334 174.271,217.001 172,223.5C 165.699,228.266 161.866,226.766 160.5,219C 160.667,217.833 160.833,216.667 161,215.5C 162.652,214.601 164.152,213.601 165.5,212.5 Z" />
    </g>
    <g>
        <path style="opacity:1" fill="#487bb9"
            d="M 180.5,212.5 C 182.176,213.183 182.843,214.517 182.5,216.5C 181.178,216.33 180.011,216.663 179,217.5C 178.502,220.482 178.335,223.482 178.5,226.5C 177.167,226.5 175.833,226.5 174.5,226.5C 174.5,222.167 174.5,217.833 174.5,213.5C 176.124,213.36 177.29,214.027 178,215.5C 178.698,214.309 179.531,213.309 180.5,212.5 Z" />
    </g>
    <g>
        <path style="opacity:1" fill="#73a2cd"
            d="M 216.5,224.5 C 215.833,221.167 215.167,217.833 214.5,214.5C 214.783,213.711 215.283,213.044 216,212.5C 216.499,216.486 216.666,220.486 216.5,224.5 Z" />
    </g>
    <g>
        <path style="opacity:1" fill="#3c72b4"
            d="M 225.5,212.5 C 230.649,212.651 232.982,215.318 232.5,220.5C 222.235,220.447 221.902,221.78 231.5,224.5C 228.824,227.021 225.99,227.021 223,224.5C 220.383,219.578 221.217,215.578 225.5,212.5 Z" />
    </g>
    <g>
        <path style="opacity:1" fill="#356db2"
            d="M 252.5,215.5 C 252.82,218.898 252.487,222.232 251.5,225.5C 250.832,222.694 250.166,220.028 249.5,217.5C 248.745,215.534 247.579,215.2 246,216.5C 245.502,219.817 245.335,223.15 245.5,226.5C 244.5,226.5 243.5,226.5 242.5,226.5C 242.665,223.15 242.498,219.817 242,216.5C 240.421,215.2 239.255,215.534 238.5,217.5C 237.834,220.028 237.168,222.694 236.5,225.5C 235.509,221.555 235.176,217.555 235.5,213.5C 237.556,214.562 239.556,214.229 241.5,212.5C 243.134,212.968 244.3,213.968 245,215.5C 247.64,211.543 250.14,211.543 252.5,215.5 Z" />
    </g>
    <g>
        <path style="opacity:1" fill="#3e74b5"
            d="M 256.5,207.5 C 257.5,207.5 258.5,207.5 259.5,207.5C 259.337,209.857 259.503,212.19 260,214.5C 265.047,211.782 267.881,213.449 268.5,219.5C 267.594,225.869 264.427,227.535 259,224.5C 258.601,224.728 258.435,225.062 258.5,225.5C 256.547,219.926 255.88,213.926 256.5,207.5 Z" />
    </g>
    <g>
        <path style="opacity:1" fill="#3970b4"
            d="M 280.5,216.5 C 280.5,217.833 280.5,219.167 280.5,220.5C 277.753,220.187 275.086,220.52 272.5,221.5C 272.624,222.107 272.957,222.44 273.5,222.5C 275.698,223.165 278.031,223.832 280.5,224.5C 277.41,226.951 274.243,226.951 271,224.5C 269.977,220.683 270.477,217.183 272.5,214C 276.232,211.745 278.899,212.578 280.5,216.5 Z" />
    </g>
    <g>
        <path style="opacity:1" fill="#366fb3"
            d="M 288.5,212.5 C 290.176,213.183 290.843,214.517 290.5,216.5C 289.178,216.33 288.011,216.663 287,217.5C 286.502,220.482 286.335,223.482 286.5,226.5C 285.5,226.5 284.5,226.5 283.5,226.5C 283.174,222.116 283.508,217.783 284.5,213.5C 286.03,215.762 287.363,215.428 288.5,212.5 Z" />
    </g>
    <g>
        <path style="opacity:1" fill="#386fb3"
            d="M 573.5,208.5 C 574.167,208.5 574.833,208.5 575.5,208.5C 575.192,210.924 575.526,213.257 576.5,215.5C 577.107,215.376 577.44,215.043 577.5,214.5C 580.212,213.013 582.379,213.679 584,216.5C 584.499,220.152 584.665,223.818 584.5,227.5C 583.5,227.5 582.5,227.5 581.5,227.5C 581.751,224.091 581.417,220.758 580.5,217.5C 578.76,216.191 577.427,216.524 576.5,218.5C 575.834,221.028 575.168,223.694 574.5,226.5C 573.504,220.537 573.171,214.537 573.5,208.5 Z" />
    </g>
    <g>
        <path style="opacity:1" fill="#3c72b4"
            d="M 596.5,217.5 C 597.055,221.012 596.388,224.012 594.5,226.5C 588.17,228.855 585.837,226.855 587.5,220.5C 589.51,219.498 591.51,218.498 593.5,217.5C 591.647,216.24 589.814,216.24 588,217.5C 587.576,214.672 588.91,213.339 592,213.5C 594.616,213.617 596.116,214.95 596.5,217.5 Z" />
    </g>
    <g>
        <path style="opacity:1" fill="#316cb1"
            d="M 599.5,214.5 C 600.5,214.5 601.5,214.5 602.5,214.5C 602.5,218.5 602.5,222.5 602.5,226.5C 601.5,226.5 600.5,226.5 599.5,226.5C 599.5,222.5 599.5,218.5 599.5,214.5 Z" />
    </g>
    <g>
        <path style="opacity:1" fill="#72a0cc"
            d="M 599.5,214.5 C 600.568,213.566 601.901,213.232 603.5,213.5C 603.5,218.167 603.5,222.833 603.5,227.5C 601.901,227.768 600.568,227.434 599.5,226.5C 600.5,226.5 601.5,226.5 602.5,226.5C 602.5,222.5 602.5,218.5 602.5,214.5C 601.5,214.5 600.5,214.5 599.5,214.5 Z" />
    </g>
    <g>
        <path style="opacity:1" fill="#6c9cc9"
            d="M 608.5,214.5 C 606.577,218.029 605.911,222.029 606.5,226.5C 607.5,226.5 608.5,226.5 609.5,226.5C 608.432,227.434 607.099,227.768 605.5,227.5C 605.5,222.833 605.5,218.167 605.5,213.5C 606.791,213.263 607.791,213.596 608.5,214.5 Z" />
    </g>
    <g>
        <path style="opacity:1" fill="#306ab0"
            d="M 608.5,214.5 C 608.369,215.239 608.536,215.906 609,216.5C 609.826,214.595 610.993,214.261 612.5,215.5C 609.914,218.614 608.914,222.281 609.5,226.5C 608.5,226.5 607.5,226.5 606.5,226.5C 605.911,222.029 606.577,218.029 608.5,214.5 Z" />
    </g>
    <g>
        <path style="opacity:1" fill="#f8fafc"
            d="M 124.5,215.5 C 126.346,215.222 127.68,215.889 128.5,217.5C 126.833,218.833 125.167,218.833 123.5,217.5C 123.863,216.817 124.196,216.15 124.5,215.5 Z" />
    </g>
    <g>
        <path style="opacity:1" fill="#f2f6fa"
            d="M 165.5,215.5 C 166.822,215.33 167.989,215.663 169,216.5C 169.758,218.769 169.591,220.936 168.5,223C 163.917,223.934 162.417,222.1 164,217.5C 164.717,216.956 165.217,216.289 165.5,215.5 Z" />
    </g>
    <g>
        <path style="opacity:1" fill="#f9fbfd"
            d="M 225.5,215.5 C 227.346,215.222 228.68,215.889 229.5,217.5C 227.833,218.833 226.167,218.833 224.5,217.5C 224.863,216.817 225.196,216.15 225.5,215.5 Z" />
    </g>
    <g>
        <path style="opacity:1" fill="#98bbda"
            d="M 235.5,213.5 C 235.176,217.555 235.509,221.555 236.5,225.5C 237.168,222.694 237.834,220.028 238.5,217.5C 238.5,220.5 238.5,223.5 238.5,226.5C 237.167,226.5 235.833,226.5 234.5,226.5C 234.182,221.968 234.515,217.634 235.5,213.5 Z" />
    </g>
    <g>
        <path style="opacity:1" fill="#eef3f9"
            d="M 260.5,215.5 C 265.182,215.875 266.516,218.208 264.5,222.5C 262.955,223.452 261.288,223.785 259.5,223.5C 259.279,220.721 259.612,218.054 260.5,215.5 Z" />
    </g>
    <g>
        <path style="opacity:1" fill="#f4f8fb"
            d="M 274.5,215.5 C 276.346,215.222 277.68,215.889 278.5,217.5C 276.579,218.641 274.579,218.808 272.5,218C 273.381,217.292 274.047,216.458 274.5,215.5 Z" />
    </g>
    <g>
        <path style="opacity:1" fill="#b2cbe3"
            d="M 252.5,215.5 C 253.482,218.962 253.815,222.629 253.5,226.5C 252.167,226.5 250.833,226.5 249.5,226.5C 249.5,223.5 249.5,220.5 249.5,217.5C 250.166,220.028 250.832,222.694 251.5,225.5C 252.487,222.232 252.82,218.898 252.5,215.5 Z" />
    </g>
    <g>
        <path style="opacity:1" fill="#7ca8d0"
            d="M 596.5,217.5 C 597.479,220.625 597.813,223.958 597.5,227.5C 596.209,227.737 595.209,227.404 594.5,226.5C 596.388,224.012 597.055,221.012 596.5,217.5 Z" />
    </g>
    <g>
        <path style="opacity:1" fill="#aac6e0"
            d="M 280.5,216.5 C 281.451,217.919 281.784,219.585 281.5,221.5C 278.615,221.194 275.948,221.527 273.5,222.5C 272.957,222.44 272.624,222.107 272.5,221.5C 275.086,220.52 277.753,220.187 280.5,220.5C 280.5,219.167 280.5,217.833 280.5,216.5 Z" />
    </g>
</svg>